<?xml version="1.0" encoding="utf-8"?>
<!-- Generator: Adobe Illustrator 24.1.1, SVG Export Plug-In . SVG Version: 6.00 Build 0)  -->
<svg version="1.1" id="Layer_1" xmlns="http://www.w3.org/2000/svg" xmlns:xlink="http://www.w3.org/1999/xlink" x="0px" y="0px"
	 viewBox="0 0 112 46.6" style="enable-background:new 0 0 112 46.6;" xml:space="preserve">
<style type="text/css">
	.st0{fill:#FFFFFF;}
</style>
<path class="st0" d="M32.8,5.3h-2h-1.5L12.2,46.6h1.5h2h1.5L34.3,5.3H32.8z"/>
<path class="st0" d="M43.9,46.6h-7.4V19.2h7.2v3.4c1.7-2.9,5-4.1,8-4.1c6.8,0,9.9,4.9,9.9,10.9v17.3h-7.4v-16c0-3.1-1.5-5.5-5.1-5.5
	c-3.2,0-5.2,2.5-5.2,5.7V46.6z"/>
<path class="st0" d="M83.4,30.7l11.2,15.9h-9.1l-7.3-10.5l-3.1,3.2v7.2h-7.4V7h7.4v22.3l9.5-10.2h9.7L83.4,30.7z"/>
</svg>
