<svg width="144" height="45" viewBox="0 0 144 45" fill="none" xmlns="http://www.w3.org/2000/svg">
<path d="M54.377 32.9911C54.377 28.3083 57.7131 25.3461 61.7611 25.3461C64.2838 25.3461 66.0433 26.3771 67.1737 27.6735L65.8347 28.8641C64.757 27.0669 63.7324 25.7409 62.1034 25.7409C59.898 25.7409 58.5329 28.0995 58.5329 32.031C58.5329 36.5027 60.268 38.6446 62.842 38.6446C64.2626 38.6446 65.7854 37.9571 67.0208 36.2645L67.3367 36.45C65.8381 38.7504 63.8677 40.2062 61.1353 40.2062C57.3524 40.2134 54.377 37.4355 54.377 32.9911Z" fill="#fff"/>
<path d="M67.8975 32.8581C67.8975 28.335 71.1824 25.3461 75.544 25.3461C79.8273 25.3461 82.9807 28.1541 82.9807 32.7001C82.9807 37.2244 79.6703 40.2134 75.3342 40.2134C71.0508 40.2134 67.8975 37.4085 67.8975 32.8581ZM78.8812 32.8852C78.8812 28.5989 77.6203 25.7167 75.3865 25.7167C73.0735 25.7167 71.9958 28.4934 71.9958 32.7268C71.9958 36.9851 73.2578 39.8427 75.4658 39.8427C77.7778 39.8427 78.8857 37.0648 78.8857 32.8852H78.8812Z" fill="#fff"/>
<path d="M94.1546 25.5044L93.1295 28.3878C92.6975 28.168 92.2205 28.0505 91.7372 28.0441C90.4241 28.0441 89.3451 28.9965 88.9251 30.4525V39.8977H85.0625V26.192L88.7142 25.2663H88.8158V29.6314C89.5005 27.0119 91.1018 25.3461 92.9936 25.3461C93.3851 25.3514 93.7757 25.4047 94.1546 25.5044Z" fill="#fff"/>
<path d="M109.451 30.3984V39.8953H105.587V30.0288C105.587 29.0503 105.562 26.5623 103.117 26.5623C102.093 26.5623 101.147 26.9856 100.068 28.0709V39.8953H96.2065V26.192L99.964 25.2663H100.069V27.57C101.302 26.2737 102.671 25.3499 104.826 25.3499C107.769 25.3453 109.451 26.9334 109.451 30.3984Z" fill="#fff"/>
<path d="M115.576 31.8531V31.9599C115.576 36.5362 117.522 38.6522 120.279 38.6522C121.16 38.6365 122.024 38.4187 122.807 38.0153C123.591 37.6119 124.273 37.0336 124.8 36.3247L125.116 36.5099C123.355 39.1553 121.015 40.2164 118.492 40.2164C114.524 40.2164 111.556 37.4656 111.556 33.0738C111.556 28.3381 114.762 25.3491 119.124 25.3491C123.512 25.3491 125.299 28.364 125.142 31.8561L115.576 31.8531ZM115.576 31.4309H121.7C122.04 27.9915 120.753 25.7427 118.91 25.7427C116.917 25.7427 115.705 28.2294 115.576 31.4309Z" fill="#fff"/>
<path d="M136.312 25.5044L135.287 28.3878C134.855 28.168 134.379 28.0505 133.895 28.0441C132.582 28.0441 131.502 28.9965 131.084 30.4525V39.8977H127.22V26.192L130.872 25.2663H130.985V29.6314C131.669 27.0119 133.271 25.3461 135.162 25.3461C135.551 25.3522 135.937 25.4054 136.312 25.5044Z" fill="#fff"/>
<path d="M46.8633 14.7867C46.8633 10.104 50.1995 7.14058 54.2463 7.14058C56.769 7.14058 58.5297 8.17165 59.6599 9.46805L58.3211 10.6586C57.2445 8.86142 56.22 7.53532 54.591 7.53532C52.3829 7.53532 51.0203 9.89393 51.0203 13.8323C51.0203 18.3028 52.7556 20.4458 55.3306 20.4458C56.7511 20.4458 58.2739 19.7572 59.5094 18.0647L59.8241 18.2501C58.3255 20.5505 56.3564 22.0064 53.6227 22.0064C49.8347 22.0078 46.8633 19.2301 46.8633 14.7867Z" fill="#fff"/>
<path d="M70.8517 7.29904L69.8254 10.1823C69.3931 9.96278 68.9169 9.84533 68.4329 9.83876C67.1186 9.83876 66.0406 10.7911 65.62 12.2471V21.69H61.7583V7.98654L65.4104 7.06085H65.5154V11.4259C66.1994 8.80651 67.8026 7.14061 69.6941 7.14061C70.0853 7.14636 70.4743 7.19954 70.8529 7.29904H70.8517Z" fill="#fff"/>
<path d="M74.5333 13.6487V13.7545C74.5333 18.3307 76.4793 20.4478 79.2386 20.4478C80.1182 20.4317 80.9825 20.2134 81.7655 19.81C82.5485 19.4064 83.2296 18.8281 83.7568 18.1192L84.0726 18.3047C82.3121 20.9501 79.9721 22.0114 77.4493 22.0114C73.4814 22.0114 70.5127 19.2605 70.5127 14.8687C70.5127 10.1329 73.7196 7.14398 78.0811 7.14398C82.4694 7.14398 84.2559 10.16 84.0992 13.6521L74.5333 13.6487ZM74.5333 13.2254H80.6565C80.9989 9.78593 79.7104 7.53721 77.8672 7.53721C75.8723 7.53721 74.6593 10.0227 74.5333 13.2254Z" fill="#fff"/>
<path d="M99.1268 20.9227V21.0822C98.2421 21.639 97.2233 21.9405 96.1802 21.9537C94.1039 21.9537 93.6053 20.6574 93.473 19.9431C92.8853 20.5637 92.1806 21.0609 91.4003 21.4061C90.62 21.7512 89.7804 21.9375 88.9289 21.954C86.6425 21.954 85.2222 20.4993 85.2222 18.5673C85.2222 16.159 87.4301 14.4935 91.0043 14.1228C92.0087 14.0442 92.6864 13.9915 93.4487 13.9118V12.4495C93.4487 10.2534 93.1058 8.19008 90.2951 8.19008C88.8654 8.20708 87.4888 8.73179 86.4071 9.67163L86.1704 9.3807C87.5886 8.05762 89.086 7.13418 91.7675 7.13418C95.4728 7.13418 97.3394 8.74813 97.3394 12.1887V18.9621C97.3394 20.2325 97.3394 20.9727 98.6003 20.9727C98.7767 20.9721 98.9531 20.9553 99.1268 20.9227ZM93.4523 19.4423V14.3091C90.6137 14.6527 88.9889 15.8433 88.9889 18.0665C88.9889 19.8638 89.9357 20.6859 91.0394 20.6859C91.5056 20.66 91.961 20.536 92.3759 20.3217C92.7917 20.1075 93.158 19.8079 93.4523 19.4423Z" fill="#fff"/>
<path d="M108.956 20.4734C107.695 21.372 106.433 22.0076 104.698 22.0076C101.282 22.0076 100.914 19.5993 100.914 18.2512V8.03923H99.1802V7.58993L100.867 7.45747L104.677 2.56329H104.782V7.45709H108.91L108.567 8.03923H104.777V18.383C104.777 19.0446 104.777 20.817 106.618 20.817C107.371 20.7839 108.104 20.5561 108.745 20.1554L108.956 20.4734Z" fill="#fff"/>
<path d="M110.472 2.95989L112.917 0.5L115.335 2.95989L112.917 5.4209L110.472 2.95989ZM110.973 7.98652L114.729 7.06082H114.834V21.69H110.973V7.98652Z" fill="#fff"/>
<path d="M130.236 7.45748C129.027 9.73337 128.134 11.7695 126.399 15.6571L123.535 22.2191H123.406L116.913 7.45748H121.117L125.296 17.0344L125.952 15.5002C127.687 11.5844 128.212 9.17831 128.296 7.45786L130.236 7.45748Z" fill="#fff"/>
<path d="M134.25 13.6487V13.7545C134.25 18.3307 136.194 20.4478 138.954 20.4478C139.834 20.4317 140.699 20.2135 141.482 19.81C142.266 19.4065 142.947 18.8281 143.474 18.1192L143.788 18.3047C142.028 20.9501 139.689 22.0114 137.166 22.0114C133.197 22.0114 130.23 19.2605 130.23 14.8687C130.23 10.1329 133.436 7.14398 137.798 7.14398C142.187 7.14398 143.973 10.16 143.815 13.6521L134.25 13.6487ZM134.25 13.2254H140.372C140.714 9.78593 139.427 7.53721 137.583 7.53721C135.589 7.53721 134.382 10.0227 134.25 13.2254Z" fill="#fff"/>
<path d="M16.6038 6.8493L0 23.5642L16.6038 40.2793L33.2077 23.5642L16.6038 6.8493Z" fill="#fff"/>
<path d="M20.9266 44.6188L20.583 44.273L41.1533 23.5669L20.5842 2.85076L20.9266 2.50607L41.8374 23.5669L20.9266 44.6188Z" fill="#fff"/>
</svg>
