<svg width="400" height="131" viewBox="0 0 400 131" fill="none" xmlns="http://www.w3.org/2000/svg">
<path d="M124.451 38.8207C123.31 36.2518 120.455 34.9673 117.744 35.5382C76.9269 44.2439 42.1041 79.2094 26.8335 117.029C26.4053 118.028 27.6897 118.742 28.4033 117.886C38.2508 105.469 70.9328 74.4998 124.166 74.0716C127.163 74.0716 129.732 71.6455 129.875 68.6484C130.303 62.2262 129.875 50.9516 124.451 38.8207Z" fill="white"/>
<path d="M56.7946 30.8268C37.3851 45.812 20.83 64.7933 8.12824 95.0492C7.84281 95.62 7.98553 96.1909 8.27096 96.7617C10.6971 100.901 13.4087 104.897 16.6912 108.464C17.6902 109.606 19.4028 109.178 19.831 107.751C33.1036 65.935 64.9294 33.8238 106.888 20.8366C108.886 20.2657 109.6 17.5541 107.887 16.127C96.4697 6.13681 81.4845 0 65.0721 0C51.2286 0 38.3841 4.2815 27.9658 11.7028C25.9678 13.1299 26.6814 16.127 28.9649 16.6978C38.6696 18.9813 48.9451 21.8356 56.2237 24.9754C58.5071 25.9744 58.9353 29.2569 56.7946 30.8268Z" fill="white"/>
<path d="M31.8258 34.5396C33.1102 33.2552 32.5393 31.1144 30.8267 30.5435C26.1171 29.2591 20.5512 27.9747 17.2687 27.4038C14.2716 26.8329 11.2746 28.2601 9.562 30.9717C3.42519 40.8191 0 52.5219 0 64.9382C0 71.2177 0.856303 77.3545 2.5689 83.2059C2.99705 84.4904 4.85236 84.3476 4.99508 83.0632C8.56299 63.511 19.9803 45.9569 31.8258 34.5396Z" fill="white"/>
<path d="M39.8158 121.733C38.6741 122.732 38.9595 124.587 40.3867 125.158C47.9507 128.298 56.2282 130.01 64.9339 130.01C90.6229 130.01 112.744 115.168 123.305 93.6177C124.019 92.1906 123.02 90.4779 121.45 90.6207C91.9073 91.6197 63.5068 101.61 39.8158 121.733Z" fill="white"/>
<g clip-path="url(#clip0_536_82)">
<path d="M170.365 33.1421H171.184C172.82 33.2843 174.184 33.9953 175.411 34.9907C176.639 36.1283 177.457 37.4081 178.003 39.1145L185.913 62.8621L193.823 39.1145C194.368 37.4081 195.323 36.1283 196.55 34.9907C197.778 33.8531 199.141 33.2843 200.778 33.1421H217.28C217.416 33.1421 217.552 33.1421 217.552 33.2843C217.643 33.3791 217.689 33.4739 217.689 33.5687V77.3665C217.689 77.5087 217.689 77.6509 217.552 77.6509C217.462 77.7457 217.371 77.7931 217.28 77.7931H209.506C209.415 77.7931 209.324 77.7457 209.233 77.6509C209.142 77.5561 209.097 77.4613 209.097 77.3665V40.8209H204.324C202.824 40.8209 201.596 41.6741 200.914 43.3805L189.322 77.5087C189.322 77.6509 189.186 77.7931 188.913 77.7931H182.503C182.367 77.7931 182.23 77.6509 182.094 77.5087L170.638 43.3805C169.82 41.6741 168.729 40.8209 167.229 40.8209H162.592V77.3665C162.592 77.5087 162.592 77.6509 162.455 77.6509C162.365 77.7457 162.274 77.7931 162.183 77.7931H154.409C154.318 77.7931 154.227 77.7457 154.136 77.6509C154.045 77.5561 154 77.4613 154 77.3665V33.1421H170.365Z" fill="white"/>
<path d="M236.236 77.3665C236.236 77.4613 236.191 77.5561 236.1 77.6509C236.1 77.7931 235.964 77.7931 235.827 77.7931H228.054C227.963 77.7931 227.872 77.7457 227.781 77.6509C227.781 77.5087 227.645 77.5087 227.645 77.3665V33.5687C227.645 33.4265 227.645 33.2843 227.781 33.2843C227.872 33.1895 227.963 33.1421 228.054 33.1421H235.827C235.964 33.1421 236.1 33.1421 236.1 33.2843C236.191 33.3791 236.236 33.4739 236.236 33.5687V77.3665Z" fill="white"/>
<path d="M277.559 77.6511H258.329C255.874 77.6511 253.419 76.9401 251.51 75.518C247.964 72.8162 246.191 69.2612 246.191 64.853V33.4266C246.191 33.2844 246.191 33.1422 246.328 33.1422C246.419 33.0474 246.51 33 246.601 33H254.374C254.465 33 254.556 33.0474 254.647 33.1422C254.738 33.237 254.783 33.3318 254.783 33.4266V64.9952C254.783 65.9906 255.192 66.986 255.874 67.697C256.556 68.408 257.511 68.8346 258.465 68.8346H281.786C281.923 68.8346 282.059 68.9768 281.923 69.119L278.65 77.0823C278.24 77.5089 277.968 77.6511 277.559 77.6511V77.6511Z" fill="white"/>
<path d="M302.243 39.1146C303.471 36.555 305.516 34.422 307.971 33.5688C309.062 33.1422 310.153 33 311.38 33H328.428C328.564 33 328.701 33 328.701 33.1422C328.791 33.237 328.837 33.3318 328.837 33.4266V77.2245C328.837 77.3193 328.791 77.4141 328.701 77.5089C328.701 77.6511 328.564 77.6511 328.428 77.6511H320.654C320.563 77.6511 320.472 77.6037 320.381 77.5089C320.381 77.3667 320.245 77.3667 320.245 77.2245V40.6788H313.153C312.199 40.6788 311.108 40.821 310.562 41.8165C310.562 41.8165 296.515 72.5318 294.333 77.0823C294.197 77.3667 293.788 77.6511 293.515 77.6511H284.787C284.65 77.6511 284.514 77.5089 284.65 77.3667L302.243 39.1146V39.1146Z" fill="white"/>
<path d="M391.298 33.4266C391.298 33.2844 391.298 33.1422 391.435 33.1422C391.526 33.0474 391.617 33 391.708 33H399.481C399.572 33 399.663 33.0474 399.754 33.1422C399.845 33.237 399.89 33.3318 399.89 33.4266V77.2245C399.89 77.3193 399.845 77.4141 399.754 77.5089C399.663 77.6037 399.572 77.6511 399.481 77.6511H383.388C380.115 77.5089 377.524 76.0869 375.615 73.385L355.84 42.3853C355.022 41.2476 353.931 40.6788 352.703 40.6788H347.248V77.2245C347.248 77.3193 347.203 77.4141 347.112 77.5089C347.021 77.6037 346.93 77.6511 346.839 77.6511H339.065C338.974 77.6511 338.884 77.6037 338.793 77.5089C338.702 77.4141 338.656 77.3193 338.656 77.2245V33.4266C338.656 33.2844 338.656 33.1422 338.793 33.1422C338.884 33.0474 338.974 33 339.065 33H355.158C358.431 33.1422 361.022 34.5642 362.932 37.4082L382.843 68.2658C383.661 69.4034 384.616 69.9722 385.98 69.9722H391.435V33.4266H391.298Z" fill="white"/>
<path d="M158.31 97.8433L159.906 91.7998H159.947L161.529 97.8433H163.302L165.593 88.8278H163.711L162.333 95.2837H162.292L160.697 88.8278H159.115L157.519 95.2837H157.478L156.115 88.8278H154.26L156.551 97.8433H158.324H158.31ZM185.245 97.8433V96.2933H181.331V94.0181H185.027V92.5392H181.331V90.3778H185.245V88.8278H179.517V97.8433H185.245V97.8433ZM203.342 97.8433C205.184 97.8433 206.329 96.8479 206.329 95.2695C206.329 94.075 205.456 93.1792 204.256 93.0796V93.037C205.197 92.909 205.92 92.07 205.92 91.0888C205.92 89.6952 204.897 88.8278 203.274 88.8278H199.51V97.8433H203.342V97.8433ZM202.62 92.5535H201.324V90.2214H202.811C203.656 90.2214 204.147 90.6338 204.147 91.3448C204.147 92.1126 203.602 92.5535 202.633 92.5535H202.62ZM202.879 96.4356H201.324V93.8333H202.838C203.902 93.8333 204.488 94.2883 204.488 95.1273C204.488 95.9947 203.915 96.4356 202.879 96.4356ZM222.122 97.8433V88.8278H220.308V97.8433H222.122V97.8433ZM240.424 97.9998C243.001 97.9998 244.597 96.208 244.597 93.3356C244.597 90.4631 242.988 88.6714 240.424 88.6714C237.86 88.6714 236.251 90.4631 236.251 93.3213C236.251 96.208 237.846 97.9998 240.424 97.9998V97.9998ZM240.424 96.4071C239.006 96.4071 238.092 95.2268 238.092 93.3498C238.092 91.4443 239.006 90.2783 240.424 90.2783C241.842 90.2783 242.756 91.4585 242.756 93.3356C242.756 95.2126 241.869 96.4071 240.424 96.4071ZM260.512 97.8576V91.9562H260.553L264.467 97.8576H266.036V88.842H264.236V94.7007H264.195L260.281 88.842H258.699V97.8576H260.499H260.512ZM282.238 97.8576V88.842H280.424V97.8576H282.238V97.8576ZM300.485 98.014C302.572 98.014 304.099 96.6489 304.263 94.7291V94.658H302.503V94.7149C302.258 95.7814 301.522 96.4071 300.485 96.4071C299.094 96.4071 298.208 95.2268 298.208 93.3356C298.208 91.4443 299.094 90.2783 300.485 90.2783C301.562 90.2783 302.272 90.9324 302.476 91.9278L302.503 92.0273H304.263V91.9704C304.085 90.065 302.585 88.6714 300.485 88.6714C297.962 88.6714 296.366 90.4205 296.366 93.3213C296.366 96.2365 297.948 97.9998 300.485 97.9998V98.014ZM321.501 98.014C323.683 98.014 324.992 96.919 324.992 95.1842C324.992 93.7622 324.174 92.9943 322.374 92.6103L321.46 92.4113C320.465 92.198 320.028 91.8709 320.028 91.3021C320.028 90.648 320.587 90.2072 321.515 90.2072C322.401 90.2072 323.028 90.6338 323.124 91.3448V91.4159H324.842V91.3021C324.747 89.7237 323.519 88.6714 321.528 88.6714C319.537 88.6714 318.228 89.7521 318.228 91.4016C318.228 92.7668 319.087 93.62 320.805 93.9755L321.719 94.1603C322.797 94.3879 323.219 94.7007 323.219 95.3122C323.219 96.0089 322.592 96.464 321.583 96.464C320.574 96.464 319.878 96.0232 319.769 95.3264V95.2553H318.051V95.3548C318.16 97.0186 319.483 97.9998 321.542 97.9998L321.501 98.014ZM356.237 97.8576V88.842H354.423V97.8576H356.237V97.8576ZM372.438 97.8576V91.9562H372.479L376.393 97.8576H377.962V88.842H376.162V94.7007H376.121L372.207 88.842H370.625V97.8576H372.425H372.438ZM396.209 98.014C398.296 98.014 399.823 96.6489 399.987 94.7291V94.658H398.228V94.7149C397.982 95.7814 397.246 96.4071 396.209 96.4071C394.818 96.4071 393.932 95.2268 393.932 93.3356C393.932 91.4443 394.818 90.2783 396.209 90.2783C397.287 90.2783 397.996 90.9324 398.2 91.9278L398.228 92.0273H399.987V91.9704C399.81 90.065 398.31 88.6714 396.209 88.6714C393.686 88.6714 392.091 90.4205 392.091 93.3213C392.091 96.2365 393.673 97.9998 396.209 97.9998V98.014Z" fill="white"/>
</g>
<defs>
<clipPath id="clip0_536_82">
<rect width="246" height="65" fill="white" transform="translate(154 33)"/>
</clipPath>
</defs>
</svg>
